# xmcd
#
# Track frame offsets:
# 150
# 21511
# 37843
# 55793
# 75919
# 96406
# 116226
# 134407
# 151853
# 171296
# 180296
# 197993
# 215919
# 230544
# 253754
# 273579
#
# Disc length: 3865 seconds
#
# Revision: 0
# Processed by: cddbd v1.5.2PL0 Copyright (c) Steve Scherf et al.
# Submitted via: Audion 3.0.2 (http://www.panic.com/audion/)
#
DISCID=e20f1710
DTITLE=Various Artist - Music 1 cd
DYEAR=1900
DGENRE=
TTITLE0=Amanda Marshall-Beautiful Goodbye
TTITLE1=10:36
TTITLE2=Evanescence-Wake Me Up Inside
TTITLE3=Evanescence-My Immortal
TTITLE4=Haddaway-What is Love
TTITLE5=Danny Cox-Bravest Surrendeer
TTITLE6=Cowboy Junkies-Angel Mine
TTITLE7=Jewel-Intuition
TTITLE8=Seether and Amy-Broken
TTITLE9=BackStreet Boys-Incomplete
TTITLE10=Brian Addams-Open Road
TTITLE11=Kelly Clarkson-Breakaway
TTITLE12=REM-Around the Sun
TTITLE13=Cold Play-Clocks
TTITLE14=Sarah McLachlan-World on Fire
TTITLE15=Cheetah Girls-Cinderella
EXTD=
EXTT0=
EXTT1=
EXTT2=
EXTT3=
EXTT4=
EXTT5=
EXTT6=
EXTT7=
EXTT8=
EXTT9=
EXTT10=
EXTT11=
EXTT12=
EXTT13=
EXTT14=
EXTT15=
PLAYORDER=
